<svg width="150" height="61" viewBox="0 0 150 61" fill="none" xmlns="http://www.w3.org/2000/svg">
<g id="Group 33064">
<circle id="Ellipse 53" cx="2.08346" cy="10.3054" r="2.08346" fill="#FFE2AA"/>
<circle id="Ellipse 54" cx="83.1018" cy="10.3054" r="2.08346" fill="#FFE2AA"/>
<circle id="Ellipse 55" cx="2.08346" cy="26.5092" r="2.08346" fill="#FFE2AA"/>
<circle id="Ellipse 56" cx="83.1018" cy="26.5092" r="2.08346" fill="#FFE2AA"/>
<circle id="Ellipse 57" cx="2.08346" cy="42.7129" r="2.08346" fill="#FFE2AA"/>
<circle id="Ellipse 58" cx="83.1018" cy="42.7129" r="2.08346" fill="#FFE2AA"/>
<circle id="Ellipse 59" cx="2.08346" cy="58.9165" r="2.08346" fill="#FFE2AA"/>
<circle id="Ellipse 60" cx="83.1018" cy="58.9165" r="2.08346" fill="#FFE2AA"/>
<circle id="Ellipse 63" cx="18.2871" cy="10.3054" r="2.08346" fill="#FFE2AA"/>
<circle id="Ellipse 64" cx="99.3055" cy="10.3054" r="2.08346" fill="#FFE2AA"/>
<circle id="Ellipse 65" cx="18.2871" cy="26.5092" r="2.08346" fill="#FFE2AA"/>
<circle id="Ellipse 66" cx="99.3055" cy="26.5092" r="2.08346" fill="#FFE2AA"/>
<circle id="Ellipse 67" cx="18.2871" cy="42.7129" r="2.08346" fill="#FFE2AA"/>
<circle id="Ellipse 68" cx="99.3055" cy="42.7129" r="2.08346" fill="#FFE2AA"/>
<circle id="Ellipse 69" cx="18.2871" cy="58.9165" r="2.08346" fill="#FFE2AA"/>
<circle id="Ellipse 70" cx="99.3055" cy="58.9165" r="2.08346" fill="#FFE2AA"/>
<circle id="Ellipse 73" cx="34.4908" cy="10.3054" r="2.08346" fill="#FFE2AA"/>
<circle id="Ellipse 74" cx="115.509" cy="10.3054" r="2.08346" fill="#FFE2AA"/>
<circle id="Ellipse 75" cx="34.4908" cy="26.5092" r="2.08346" fill="#FFE2AA"/>
<circle id="Ellipse 76" cx="115.509" cy="26.5092" r="2.08346" fill="#FFE2AA"/>
<circle id="Ellipse 77" cx="34.4908" cy="42.7129" r="2.08346" fill="#FFE2AA"/>
<circle id="Ellipse 78" cx="115.509" cy="42.7129" r="2.08346" fill="#FFE2AA"/>
<circle id="Ellipse 79" cx="34.4908" cy="58.9165" r="2.08346" fill="#FFE2AA"/>
<circle id="Ellipse 80" cx="115.509" cy="58.9165" r="2.08346" fill="#FFE2AA"/>
<circle id="Ellipse 83" cx="50.6945" cy="10.3054" r="2.08346" fill="#FFE2AA"/>
<circle id="Ellipse 84" cx="131.713" cy="10.3054" r="2.08346" fill="#FFE2AA"/>
<circle id="Ellipse 85" cx="50.6945" cy="26.5092" r="2.08346" fill="#FFE2AA"/>
<circle id="Ellipse 86" cx="131.713" cy="26.5092" r="2.08346" fill="#FFE2AA"/>
<circle id="Ellipse 87" cx="50.6945" cy="42.7129" r="2.08346" fill="#FFE2AA"/>
<circle id="Ellipse 88" cx="131.713" cy="42.7129" r="2.08346" fill="#FFE2AA"/>
<circle id="Ellipse 89" cx="50.6945" cy="58.9165" r="2.08346" fill="#FFE2AA"/>
<circle id="Ellipse 90" cx="131.713" cy="58.9165" r="2.08346" fill="#FFE2AA"/>
<circle id="Ellipse 93" cx="66.8981" cy="10.3054" r="2.08346" fill="#FFE2AA"/>
<circle id="Ellipse 94" cx="147.916" cy="10.3054" r="2.08346" fill="#FFE2AA"/>
<circle id="Ellipse 95" cx="66.8981" cy="26.5092" r="2.08346" fill="#FFE2AA"/>
<circle id="Ellipse 96" cx="147.916" cy="26.5092" r="2.08346" fill="#FFE2AA"/>
<circle id="Ellipse 97" cx="66.8981" cy="42.7129" r="2.08346" fill="#FFE2AA"/>
<circle id="Ellipse 98" cx="147.916" cy="42.7129" r="2.08346" fill="#FFE2AA"/>
<circle id="Ellipse 99" cx="66.8981" cy="58.9165" r="2.08346" fill="#FFE2AA"/>
<circle id="Ellipse 100" cx="147.916" cy="58.9165" r="2.08346" fill="#FFE2AA"/>
</g>
</svg>
